PathFileType	4	(X/Y/Z)	C:/Users/beibeiliu/ov580/test_trc/capture2\sequence.26_training_dense_right.trc
DataRate	CameraRate	NumFrames	NumMarkers	Units	OrigDataRate	OrigDataStartFrame	OrigNumFrames
120	120	14	19	mm	120	192	383
Frame#	Time	ThumbCMC			ThumbMCP			ThumbIP			ThumbTip			IndexMCP			IndexPIP			IndexTip			MiddleMCP			MiddlePIP			MiddleTip			RingMCP			RingPIP			RingTip			PinkyMCP			PinkyPIP			PinkyTip			BackHand1			BackHand2			BackHand3	
		X0	Y0	Z0	X1	Y1	Z1	X2	Y2	Z2	X3	Y3	Z3	X4	Y4	Z4	X5	Y5	Z5	X6	Y6	Z6	X7	Y7	Z7	X8	Y8	Z8	X9	Y9	Z9	X10	Y10	Z10	X11	Y11	Z11	X12	Y12	Z12	X13	Y13	Z13	X14	Y14	Z14	X15	Y15	Z15	X16	Y16	Z16	X17	Y17	Z17	X18	Y18	Z18	
191	1.59167	103.284	46.3752	38.6308	94.7774	25.3371	22.4857	91.0527	10.0776	-7.41376	93.9006	-0.472348	-23.2266	134.142	48.6959	-28.8332	134.042	44.0346	-50.5613	138.641	40.9384	-71.7933	160.707	39.3871	-27.3668	167.315	29.0623	-46.8316	173.773	16.4199	-72.8606	174.135	26.3305	-12.7948	175.958	8.04033	-32.4792	176.277	-13.8655	-50.6117	184.634	11.8087	6.53345	180.088	-13.781	-3.67299	162.567	-35.5241	-12.2884	164.485	57.0564	30.6663	156.07	63.3367	59.9771	135.535	66.098	33.4671	
192	1.6	104.018	51.7878	38.4391	90.5651	30.9111	17.5729	93.4587	19.0158	-8.05337	92.4839	7.67844	-26.1776	132.884	52.9458	-27.6806	138.408	45.7835	-48.2689	143.696	42.007	-75.7563	161.512	38.0886	-26.9373	164.498	25.6627	-49.8761	169.985	13.4254	-74.7201	170.915	21.9038	-18.5013	173.766	2.71443	-32.7755	163.157	-20.455	-52.173	176.76	7.8478	1.21356	167.357	-18.1992	-7.11195	146.227	-36.2496	-5.45909	167.838	50.9394	31.2082	160.568	59.5239	56.4526	137.438	69.6558	37.328	
193	1.60833	108.061	55.3078	41.4463	93.7895	36.4339	13.2903	89.5633	25.8271	-6.14881	90.7576	15.013	-29.0016	137.148	54.5961	-25.4774	138.875	48.4918	-49.8578	144.158	43.307	-76.4392	159.422	37.1056	-29.1841	162.001	25.9044	-48.5577	165.222	10.6043	-73.9813	169.536	20.3712	-15.1073	162.561	-0.444932	-37.1485	149.278	-24.4637	-51.083	174.222	1.78755	3.98564	153.222	-21.4286	-6.4471	125.687	-29.2574	1.70903	173.712	46.2992	28.0664	167.481	54.8285	60.7736	143.047	68.8701	37.5713	
194	1.61667	109.42	60.1806	38.5708	94.0365	43.1762	13.0792	90.9417	32.5583	-12.0171	92.5446	21.7838	-29.6406	143.905	52.6684	-29.8356	143.047	47.8428	-52.9454	150.556	39.301	-73.2352	162.463	33.5071	-30.5099	163.684	19.8825	-51.3708	162.912	6.90059	-75.8511	165.087	14.6005	-18.7033	156.756	-5.5182	-35.8899	138.251	-25.8625	-46.3049	163.048	-1.20367	-2.91053	144.328	-20.4753	-5.0214	115.436	-18.9947	1.75382	171.76	40.5886	26.8386	169.344	50.2453	57.7405	148.55	67.8595	33.4793	
195	1.625	116.428	61.3966	36.6279	99.7927	46.8954	12.0331	93.9755	38.1594	-9.70524	97.2442	26.0751	-30.5999	145.599	51.4568	-30.2456	144.72	47.5748	-53.2874	149.072	40.5427	-78.1819	159.414	33.2343	-31.185	158.555	18.9055	-53.4973	158.127	2.66913	-74.3592	160.385	8.01324	-19.5564	147.81	-7.9519	-35.7713	122.765	-23.9436	-45.5263	156.27	-6.70635	-2.83286	132.123	-20.5605	-3.82784	102.064	-10.0107	5.30136	169.519	36.9231	29.478	169.057	42.4661	58.0003	153.08	62.9479	36.0203	
196	1.63333	118.637	63.3157	38.5198	101.735	51.0623	12.1281	96.2469	42.1094	-10.167	94.3566	32.1063	-32.0628	147.678	51.0051	-31.0547	145.624	44.8493	-52.4502	149.52	38.504	-75.7717	158.315	27.5768	-31.6403	155.719	14.8046	-54.0392	149.82	-0.642271	-79.8554	154.365	7.8844	-20.2857	138.662	-11.1906	-36.1234	112.234	-22.9241	-44.0066	148.312	-5.91667	-2.05212	118.007	-16.358	-3.54963	94.1149	-10.2168	8.32886	173.554	26.9465	27.8059	168.933	35.8001	61.4123	156.588	58.3346	35.4465	
197	1.64167	121.807	64.43	40.6468	103.073	55.565	10.5324	97.6149	47.4694	-13.3097	96.4755	35.1761	-29.2345	148.461	48.7734	-27.9514	146.838	41.7307	-54.3622	149.589	32.4133	-72.5864	155.951	27.7644	-27.7589	151.113	15.4139	-50.8702	142.116	-2.8773	-79.5864	148.233	6.36	-20.1867	128.645	-11.1206	-36.2971	103.847	-15.347	-45.1844	142.653	-11.8604	-0.044392	110.261	-12.5537	-3.82083	89.3034	0.166249	7.31493	168.215	22.5232	27.2948	166.435	33.8354	61.0944	159.437	58.5949	35.0742	
198	1.65	125.726	63.8537	41.1637	106.157	57.9343	17.2239	100.004	50.2766	-11.1544	96.3957	39.2957	-34.0106	149.755	49.3751	-25.4783	147.187	39.2492	-52.345	148.247	33.1007	-77.1594	154.21	19.9877	-27.9691	145.772	14.4001	-54.4194	136.55	0.286199	-78.7556	143.239	2.03715	-18.0265	121.015	-8.21811	-37.3738	97.019	-9.65692	-44.3879	133.894	-11.2246	-1.9484	103.325	-10.5272	-3.70278	81.5737	0.562745	4.50116	165.661	18.386	29.9395	167.432	28.2121	56.2739	160.948	51.0494	37.7014	
199	1.65833	129.346	62.8719	38.1622	108.124	60.8605	11.4195	103.858	50.8093	-12.6485	99.6011	40.7307	-31.0477	149.881	42.1473	-28.2608	146.765	41.3963	-50.2952	146.337	29.3177	-72.2947	151.38	18.2207	-29.4774	142.736	12.2623	-51.2466	129.913	-3.80092	-77.5172	137.454	0.293428	-18.6112	115.647	-4.13871	-37.0367	87.1004	-8.43792	-45.5136	128.266	-12.5732	0.326983	97.7029	-7.83066	-5.99972	75.2465	4.85618	-1.01431	163.262	10.66	27.2652	164.789	21.9124	59.9505	163.228	51.2137	36.2994	
200	1.66667	131.704	63.0906	41.491	111.561	63.1253	17.7307	105.884	54.6166	-11.8332	101.12	45.4303	-30.8515	150.398	42.9598	-25.8169	146.532	36.5783	-51.544	144.389	27.2353	-73.0611	147.193	14.1873	-29.0994	138.646	7.11534	-50.6306	125.707	-3.67275	-76.0278	131.847	-1.85477	-18.8814	108.153	-6.35365	-35.1096	79.5772	-5.38578	-45.7913	120.523	-13.5752	0.285233	93.3439	-3.50153	-6.51285	69.2071	7.31251	-5.07488	161.23	11.5813	27.6066	162.813	15.06	62.4159	163.802	42.9716	36.5603	
201	1.675	135.833	65.1238	43.732	116.439	65.0881	13.8391	110.101	59.1413	-8.7354	104.731	47.0648	-30.4085	151.62	40.2211	-24.7622	147.468	32.9163	-51.1682	144.744	26.4026	-73.2715	144.13	11.1577	-27.1308	135.878	9.15664	-52.423	120.816	-2.52568	-79.1489	127.596	-2.92139	-15.8985	105.233	-6.13083	-32.9035	79.3062	2.28314	-46.5574	115.749	-11.125	1.61104	91.0202	-4.29883	-5.43452	66.4697	11.5752	-6.24323	155.714	2.43129	29.1805	161.398	13.0097	58.5832	163.07	41.9329	38.6352	
202	1.68333	140.523	61.9819	40.7303	121.927	65.8433	15.8109	115.214	59.3039	-12.3623	110.26	44.2915	-29.8046	154.525	37.0627	-28.361	148.916	31.0903	-51.3277	146.057	22.3033	-74.2116	143.324	13.5955	-26.1315	131.905	5.3979	-52.4297	119.229	2.51297	-76.2493	123.692	0.79437	-19.2011	99.3395	-0.147297	-35.2452	76.8804	6.99258	-45.5307	108.497	-9.35344	0.448473	87.9047	3.47937	-7.43492	63.5014	17.689	-8.18745	154.22	0.41511	31.4839	155.668	6.19892	59.2512	164.422	34.674	37.6881	
203	1.69167	146.959	63.1905	37.8527	129.618	68.9687	13.1735	121.562	58.4239	-12.6592	114.098	46.3113	-32.4757	154.779	32.3382	-29.057	152.125	29.7027	-51.4815	148.778	21.5548	-78.2228	139.587	8.56921	-30.3629	128.803	5.93335	-52.1571	113.536	0.0242508	-77.4475	117.926	-0.968923	-18.0843	95.3488	4.90324	-37.0096	70.8189	14.5283	-46.9533	103.246	-3.56136	-2.87524	83.7184	11.5346	-8.2221	64.391	26.2514	-9.68738	149.303	-1.8124	29.5638	153.171	2.33606	62.9665	166.771	29.3782	34.7394	
204	1.7	150.088	58.5237	41.928	135.79	63.7424	13.9217	129.076	59.381	-13.4869	119.812	48.4026	-30.7437	154.691	24.3803	-28.4194	152.735	24.494	-52.7484	147.522	14.0521	-77.4673	136.393	5.31439	-28.5069	124.982	2.50257	-51.4715	113.465	3.22851	-78.7912	114.612	1.09706	-21.1715	91.1885	6.37275	-36.7239	72.8021	23.1578	-49.2451	100.95	-1.79266	-0.970136	78.7668	14.0734	-6.87257	64.913	34.3427	-10.2159	142.834	-3.663	30.86	149.166	0.148032	59.5071	164.84	24.1511	36.4531	
